<?xml version="1.0" encoding="UTF-8"?>
<svg xmlns="http://www.w3.org/2000/svg" xmlns:xlink="http://www.w3.org/1999/xlink" width="113px" height="150px" viewBox="0 0 288 384" version="1.1">
<g id="surface1">
<path style=" stroke:none;fill-rule:nonzero;fill:rgb(1.176471%,8.627451%,20.392157%);fill-opacity:1;" d="M 160.949219 31.050781 C 151.574219 21.675781 136.351562 21.675781 126.976562 31.050781 L 6.976562 151.050781 C -2.398438 160.425781 -2.398438 175.648438 6.976562 185.023438 C 16.351562 194.398438 31.574219 194.398438 40.949219 185.023438 L 120 105.898438 L 120 336 C 120 349.273438 130.726562 360 144 360 C 157.273438 360 168 349.273438 168 336 L 168 105.898438 L 247.050781 184.949219 C 256.425781 194.324219 271.648438 194.324219 281.023438 184.949219 C 290.398438 175.574219 290.398438 160.351562 281.023438 150.976562 L 161.023438 30.976562 Z M 160.949219 31.050781 "/>
</g>
</svg>
